<svg class="icon" style="vertical-align: middle;fill: #ffffff;overflow: hidden;" viewBox="0 0 1024 1024" version="1.1" xmlns="http://www.w3.org/2000/svg"><path d="M96 624m-32 0a32 32 0 1 0 64 0 32 32 0 1 0-64 0ZM512 968a457.44 457.44 0 0 1-395.76-229.28 32 32 0 1 1 55.52-32 392 392 0 1 0-42-281.84l51.68-51.68a32 32 0 0 1 45.28 45.28l-116 116A32 32 0 0 1 56 512a456 456 0 1 1 456 456zM464 592a32 32 0 0 1-32-32V320a32 32 0 0 1 64 0v240a32 32 0 0 1-32 32zM464 592a32 32 0 0 1-32-32V320a32 32 0 0 1 64 0v240a32 32 0 0 1-32 32zM704 592H464a32 32 0 0 1 0-64h240a32 32 0 0 1 0 64z"></path></svg>