<svg class="icon" style="vertical-align: middle;fill: #107dcf;overflow: hidden;" viewBox="0 0 1024 1024" version="1.1" xmlns="http://www.w3.org/2000/svg"><path d="M526.63454 58.067422a21.503527 21.503527 0 0 1-27.501109 0.175539l474.979265 381.50475a31.538506 31.538506 0 1 0 39.496274-49.150919L538.629705 9.004273a41.602742 41.602742 0 0 0-51.988799 0.234052L11.573871 398.671586a31.538506 31.538506 0 1 0 39.993635 48.79984L526.63454 58.067422zM1013.60897 564.087832L538.629705 182.583083a41.602742 41.602742 0 0 0-51.988799 0.204795L11.573871 572.191883a31.538506 31.538506 0 1 0 39.993635 48.79984l66.763331-54.709653v361.61033A94.644775 94.644775 0 0 0 213.004869 1022.537175H441.732179v-247.275931a15.79851 15.79851 0 0 1 15.739997-15.79851h110.472541c8.68918 0 15.769253 7.080073 15.769253 15.79851v247.275931H812.441281a94.615518 94.615518 0 0 0 94.644775-94.615518V559.465305l66.997383 53.831959a31.538506 31.538506 0 1 0 39.525531-49.209432z m-169.629183 363.804568c0 17.436874-14.101633 31.538506-31.567763 31.538506h-165.591785v-184.198919a78.875522 78.875522 0 0 0-78.875522-78.904778h-110.472541a78.875522 78.875522 0 0 0-78.846265 78.904778v184.198919h-165.591786c-17.46613 0-31.597019-14.130889-31.597019-31.538506V514.527323L512.883986 242.851471l331.095801 265.941578v419.128608z"></path></svg>