<?xml version="1.0" encoding="utf-8"?><svg width="56" height="224" viewBox="0 0 56 224" xmlns="http://www.w3.org/2000/svg" xmlns:xlink="http://www.w3.org/1999/xlink"><svg preserveAspectRatio="xMidYMid" width="56" height="56" viewBox="0 0 56 56" xmlns="http://www.w3.org/2000/svg"><defs><radialGradient id="aa"><stop offset="0%" stop-color="#FDE0C5" stop-opacity=".9"/><stop offset="100%" stop-color="#FDE0C5" stop-opacity=".1"/></radialGradient><linearGradient id="ab" x1="0" x2="1" y1="0" y2="1"><stop offset="0%" stop-color="#F98424"/><stop offset="100%" stop-color="#F85B4B"/></linearGradient></defs><circle cx="28" cy="28" r="28" fill="#fff5ed"/><path d="M43.643 6.02a4.344 4.344 0 0 1-.944 1.416L24.437 25.699a4.356 4.356 0 0 1-6.16-6.16L35.69 2.127a26.858 26.858 0 0 1 7.953 3.893zM10.431 48.476c.223-.272.46-.537.714-.791l18.541-18.54c4.188-4.189 10.98-4.189 15.169 0s4.189 10.981 0 15.17L35.16 54.01c-2.284.627-4.677.99-7.16.99-6.716 0-12.845-2.467-17.569-6.524z" fill="url(#aa)"/><path d="M40 37H16a2 2 0 0 1-2-2V19a2 2 0 0 1 2-2h24a2 2 0 0 1 2 2v16a2 2 0 0 1-2 2zm0-18H16v16h24V19zM22 39h12a1 1 0 0 1 0 2H22a1 1 0 0 1 0-2z" fill="url(#ab)"/></svg><svg preserveAspectRatio="xMidYMid" width="56" height="56" viewBox="0 0 56 56" y="56" xmlns="http://www.w3.org/2000/svg"><defs><radialGradient id="ba"><stop offset="0%" stop-color="#C6E6F9" stop-opacity=".9"/><stop offset="100%" stop-color="#C6E6F9" stop-opacity=".2"/></radialGradient><linearGradient id="bb" x1="0" x2="1" y1="0" y2="1"><stop offset="0%" stop-color="#64D9FD"/><stop offset="100%" stop-color="#5DAFEE"/></linearGradient></defs><circle cx="28" cy="28" r="28" fill="#eefaff"/><path d="M43.223 50.294c-.151-.068-.31-.12-.458-.192-.033.19-.082.374-.122.562A26.842 26.842 0 0 1 28 55C13.088 55 1 42.912 1 28c0-.418.044-.825.063-1.238A13.441 13.441 0 0 1 5.5 26c5.908 0 10.916 3.801 12.747 9.086A15.407 15.407 0 0 1 27.5 32c1.572 0 3.087.238 4.517.673C32.193 22.332 40.617 14 51 14c.019 0 .037.003.056.003C53.542 18.088 55 22.868 55 28c0 9.263-4.669 17.431-11.777 22.294z" fill="url(#ba)"/><path d="M26.5 33a1.5 1.5 0 0 1-1.5-1.5V24c0-.828.672-2 1.5-2 .829 0 1.5.5 1.5 2v6h3c1.5 0 2 .672 2 1.5 0 .829-.5 1.5-2 1.5h-4.5zm11.666 6.868a1.004 1.004 0 0 1-1.153-.819 1 1 0 0 1 .819-1.153A7.393 7.393 0 0 0 44 30.583a7.384 7.384 0 0 0-7.147-7.402 1 1 0 0 1-.936-.762A8.389 8.389 0 0 0 27.75 16a8.363 8.363 0 0 0-8.404 8.196 1.001 1.001 0 0 1-.99.974C14.851 25.203 12 28.08 12 31.583A6.425 6.425 0 0 0 18.417 38H33a1 1 0 1 1 0 2H18.417C13.775 40 10 36.225 10 31.583c0-4.281 3.247-7.851 7.408-8.352A10.347 10.347 0 0 1 27.75 14a10.38 10.38 0 0 1 9.911 7.237A9.373 9.373 0 0 1 46 30.583a9.388 9.388 0 0 1-7.834 9.285z" fill="url(#bb)"/></svg><svg width="56" height="56" viewBox="0 0 56 56" y="112" xmlns="http://www.w3.org/2000/svg"><style>.cst0{fill:#fff9db}.cst1{fill:url(#cSVGID_1_)}.cst2{fill:url(#cSVGID_2_)}</style><circle class="cst0" cx="28" cy="28" r="28"/><radialGradient id="cSVGID_1_" cx="18.138" cy="37.835" r=".5" gradientTransform="matrix(49.668 0 0 -53.695 -871.024 2059.537)" gradientUnits="userSpaceOnUse"><stop offset="0" stop-color="#FAB53F" stop-opacity=".3"/><stop offset="1" stop-color="#FFF0B2" stop-opacity=".2"/></radialGradient><path class="cst1" d="M41.5 44c2.4 0 4.6.8 6.4 2.2-4.3 4.7-10.2 7.9-16.9 8.6v-.3C31 48.7 35.7 44 41.5 44zM13 38c-4.4 0-8-3.6-8-8s3.6-8 8-8 8 3.6 8 8-3.6 8-8 8zm41.7-14c-2.7 1.9-6.1 3-9.7 3-9.4 0-17-7.6-17-17 0-3.3.9-6.3 2.5-8.9C42.9 2.3 52.8 11.8 54.7 24z"/><linearGradient id="cSVGID_2_" gradientUnits="userSpaceOnUse" x1="17.715" y1="38.382" x2="19.382" y2="36.715" gradientTransform="matrix(18 0 0 -16.985 -305 665.419)"><stop offset="0" stop-color="#FCCB30"/><stop offset="1" stop-color="#FB8A25"/></linearGradient><path class="cst2" d="M21.3 26.8c0-1.4 1.1-2.5 2.4-2.6 1.4 0 2.5 1.1 2.6 2.4v.1c0 1.4-1.2 2.5-2.6 2.4-1.3.1-2.3-.9-2.4-2.3zm8.4 0c0-1.4 1.1-2.5 2.4-2.6 1.4 0 2.5 1.1 2.6 2.4v.1c0 1.4-1.2 2.5-2.6 2.4-1.3.1-2.4-.9-2.4-2.3zm9.6 9c-.3.4-.8.7-1.3.7-.9 0-1.7-.7-1.7-1.7 0-.5.2-1 .6-1.3 1.8-1.8 2.8-4.2 2.8-6.7 0-5.1-3.9-9.2-8.7-9.2h-6c-4.8 0-8.7 4.1-8.7 9.2S20.2 36 25 36h6.3c.5 0 1 .1 1.4.5l3.1 3.1c.7.7.7 1.9 0 2.6s-1.9.7-2.6 0l-2.8-2.8H25c-6.7 0-12.1-5.6-12.1-12.5S18.3 14.4 25 14.4h5.9C37.6 14.4 43 20 43 26.9c0 3.3-1.3 6.6-3.7 8.9z"/></svg><svg preserveAspectRatio="xMidYMid" width="56" height="56" viewBox="0 0 56 56" y="168" xmlns="http://www.w3.org/2000/svg"><defs><radialGradient id="da"><stop offset="0%" stop-color="#FCD5D2" stop-opacity=".9"/><stop offset="100%" stop-color="#FCD5D2" stop-opacity=".3"/></radialGradient><linearGradient id="db" x1="0" x2="1" y1="0" y2="1"><stop offset="0%" stop-color="#F85B4B"/><stop offset="100%" stop-color="#FA567C"/></linearGradient></defs><circle cx="28" cy="28" r="28" fill="#fff0f0"/><path d="M3.125 16.808L28 28 16.808 3.125A27.383 27.383 0 0 0 3.125 16.808zm49.75 22.384L28 28l11.192 24.875a27.39 27.39 0 0 0 13.683-13.683zM16.808 52.875L28 28 3.125 39.192a27.383 27.383 0 0 0 13.683 13.683zm22.384-49.75L28 28l24.875-11.192A27.39 27.39 0 0 0 39.192 3.125z" fill="url(#da)"/><path d="M33 28a5 5 0 0 1-9.925.855L17 17l11.855 6.075A4.999 4.999 0 0 1 33 28zm-8 0a3 3 0 1 0 6 0 3 3 0 0 0-6 0zm6.63 14.554c-8.037 2.005-16.179-2.886-18.184-10.923a14.909 14.909 0 0 1 1.005-10.041c1.065-2.241 2.458-.702 1.596 1.311a12.924 12.924 0 0 0-.66 8.245c1.737 6.967 8.793 11.205 15.759 9.467 6.967-1.737 11.205-8.793 9.467-15.759-1.737-6.967-8.793-11.205-15.759-9.467-.579.144-1.135.329-1.672.547-1.8.731-3.247-.777-1.1-1.71a14.663 14.663 0 0 1 2.288-.778c8.037-2.005 16.179 2.886 18.184 10.923 2.005 8.038-2.886 16.18-10.924 18.185z" fill="url(#db)"/></svg></svg>